<?xml version="1.0" encoding="utf-8"?>
<!-- Generator: Adobe Illustrator 18.1.1, SVG Export Plug-In . SVG Version: 6.00 Build 0)  -->
<svg version="1.1" id="Layer_1" xmlns="http://www.w3.org/2000/svg" xmlns:xlink="http://www.w3.org/1999/xlink" x="0px" y="0px"
	 viewBox="0 0 307 397" enable-background="new 0 0 307 397" xml:space="preserve">
<g>
	<g>
		<g>
			<g>
				<g opacity="0.15">
					<path fill="#010101" d="M244.7,358.2L69.9,358c-12.6,0-21.7-7-21.7-16.6c0-8.9,4-14.7,4.6-15.6l71.4-118.2l0.1-76.7
						c-6.5-6.4-8.8-10.6-7.5-13.6c0.5-1.1,1.8-2.8,5.5-2.8c0.3,0,0.6,0,0.8,0c0.9-0.2,2-0.3,3.3-0.3c2.1,0,4,0.3,4.6,0.3l53.2,0.1
						c0.6-0.1,2.5-0.3,4.6-0.3c1.3,0,2.4,0.1,3.3,0.3c0.2,0,0.5,0,0.8,0c3.8,0,5.1,1.8,5.5,2.8c1.3,3-1.1,7.2-7.6,13.6l-0.1,76.7
						l71.1,118.4c0.6,0.9,4.6,6.7,4.5,15.6C266.4,351.3,257.3,358.2,244.7,358.2"/>
				</g>
				<g>
					<path fill="#FFFFFF" d="M236.9,352.5l-174.8-0.2c-12.6,0-21.7-7-21.7-16.6c0-8.9,4-14.7,4.6-15.6l71.4-118.2l0.1-76.7
						c-6.5-6.4-8.8-10.6-7.5-13.6c0.4-1.1,1.8-2.8,5.5-2.8c0.3,0,0.6,0,0.8,0c0.9-0.2,2-0.3,3.3-0.3c2.1,0,4,0.3,4.6,0.3l53.2,0.1
						c0.6-0.1,2.5-0.3,4.6-0.3c1.3,0,2.4,0.1,3.3,0.3c0.2,0,0.5,0,0.8,0c3.8,0,5.1,1.8,5.5,2.8c1.3,3-1.1,7.2-7.6,13.6L183,202
						l71.1,118.4c0.6,0.9,4.6,6.7,4.5,15.6C258.7,345.5,249.5,352.5,236.9,352.5"/>
				</g>
			</g>
		</g>
		<g>
			<path fill="#FEEA39" d="M122.1,222.8l-62.2,95.6c0,0-4.8,8.6-2.6,14.9c2.3,6.3,3.7,10.3,24.1,10.3l146.3,0.2c0,0,13.4,0.4,16-9.8
				c2.6-10.2-1.5-15-9.5-27.1c-8-12.1-51.5-84.1-51.5-84.1H122.1"/>
			<g>
				<ellipse fill="#F9F7EB" cx="136.4" cy="253.8" rx="5.8" ry="5.6"/>
				<ellipse fill="#F9F7EB" cx="198.6" cy="321.2" rx="5.8" ry="5.6"/>
				<ellipse fill="#F9F7EB" cx="91.1" cy="321.2" rx="8.2" ry="7.8"/>
				<path fill="#F9F7EB" d="M124.8,296.1c0-2.3,2-4.2,4.4-4.2c2.4,0,4.4,1.9,4.4,4.2c0,2.3-2,4.2-4.4,4.2
					C126.7,300.2,124.8,298.4,124.8,296.1z"/>
				<path fill="#F9F7EB" d="M161.2,274.4c0-6.8,5.8-12.4,12.9-12.4c7.1,0,12.9,5.5,12.9,12.4c0,6.8-5.8,12.4-12.9,12.4
					C167,286.8,161.2,281.3,161.2,274.4z"/>
			</g>
		</g>
	</g>
	<g>
		<g>
			<g opacity="0.15">
				<ellipse fill="#010101" cx="169" cy="83.2" rx="11.6" ry="11.2"/>
			</g>
			<g>
				<path fill="#FEEA39" d="M149.5,77.5c0-6.2,5.2-11.1,11.6-11.1c6.4,0,11.6,5,11.6,11.1c0,6.2-5.2,11.2-11.6,11.2
					C154.7,88.6,149.5,83.6,149.5,77.5z"/>
			</g>
		</g>
		<g>
			<g opacity="0.15">
				<path fill="#010101" d="M121.6,48.3c0-8.1,6.8-14.7,15.3-14.7c8.5,0,15.3,6.6,15.3,14.7c0,8.1-6.8,14.6-15.3,14.6
					C128.5,62.9,121.6,56.4,121.6,48.3z"/>
			</g>
			<g>
				<path fill="#FEEA39" d="M113.8,42.6c0-8.1,6.8-14.7,15.3-14.7c8.5,0,15.3,6.6,15.3,14.7c0,8.1-6.8,14.7-15.3,14.7
					C120.7,57.2,113.8,50.7,113.8,42.6z"/>
			</g>
		</g>
		<g>
			<g opacity="0.15">
				<ellipse fill="#010101" cx="180.6" cy="33.6" rx="9" ry="8.6"/>
			</g>
			<g>
				<path fill="#FEEA39" d="M163.9,27.9c0-4.7,4-8.6,9-8.6c5,0,9,3.8,9,8.6c0,4.7-4,8.6-9,8.6C167.9,36.5,163.9,32.7,163.9,27.9z"/>
			</g>
		</g>
	</g>
</g>
</svg>
