<?xml version="1.0" encoding="utf-8"?>
<!-- Generator: Adobe Illustrator 18.1.1, SVG Export Plug-In . SVG Version: 6.00 Build 0)  -->
<svg version="1.1" id="Layer_1" xmlns="http://www.w3.org/2000/svg" xmlns:xlink="http://www.w3.org/1999/xlink" x="0px" y="0px"
	 viewBox="0 0 307 397" enable-background="new 0 0 307 397" xml:space="preserve">
<g>
	<g opacity="0.1">
		<path fill="#71716F" d="M92.8,323.7l0.1,16.9c0,5.5,4.7,9.9,10.4,9.9l55.6-0.2c5.7,0,10.4-4.5,10.4-10l-0.1-16.9
			c0-5.5-4.7-9.9-10.4-9.9l-9.2,0l0-10c0-0.4-0.1-0.8-0.1-1.2l1,0c3.8,0,6.9-3,6.9-6.7c0-3.7-3.1-6.6-7-6.6l-16.1,0.1l0-7.4l0,7.4
			l-23,0.1c-3.8,0-6.9,3-6.9,6.7c0,3.7,3.1,6.6,7,6.6l1,0c0,0.4-0.1,0.8-0.1,1.2l0,10l-9.2,0C97.4,313.7,92.8,318.2,92.8,323.7z"/>
		<path fill="#71716F" d="M134.3,256.3c0,0-17.6,25.3,0,25.3h0l0,0c0.4,0,0.7,0,1,0C151.2,280.6,134.3,256.3,134.3,256.3z"/>
		<path fill="#71716F" d="M293.9,350.8l-48.9,0.2V110.2c6.5-2.8,11.1-9.3,11.1-16.9c0-7.6-4.6-14.1-11.1-16.9V49.7h-14.1v26.5
			c-5.1,2-9.1,6.3-10.8,11.6H164c-1.6-2.8-4.4-4.8-7.8-5.3c3.1-1.6,5.2-4.6,5.2-8.2c0-5.1-4.4-9.2-9.7-9.2L112,65.3
			c-5.3,0-9.6,4.2-9.6,9.3c0,3.6,2.2,6.6,5.3,8.2c-2.9,0.7-5.3,2.6-6.8,5.1H83.5v11h17.3c1.9,3.3,5.4,5.5,9.5,5.5h1.4l0.1,22.5
			c-21.3,8-36.5,27.8-36.4,51.1c0.1,30.2,25.7,54.5,57.2,54.4c31.5-0.1,56.9-24.6,56.8-54.8c-0.1-22.7-14.6-42-35.1-50.2l-0.1-23
			h0.3c4.1,0,7.6-2.2,9.5-5.5h56.1c1.7,5.3,5.7,9.5,10.8,11.6v240.6l-204.1,0.7l0.1,18.5l267.1-0.9L293.9,350.8z"/>
	</g>
	<g>
		<g>
			<path fill="#FFFFFF" d="M154.5,309.5l-9.2,0l0-10c0-0.4-0.1-0.8-0.1-1.2l1,0c3.8,0,6.9-3,6.9-6.7c0-3.7-3.1-6.6-7-6.6l-39.1,0.1
				c-3.8,0-6.9,3-6.9,6.7c0,3.7,3.1,6.6,7,6.6l1,0c0,0.4-0.1,0.8-0.1,1.2l0,10l-9.2,0c-5.7,0-10.4,4.5-10.4,10l0.1,16.9
				c0,5.5,4.7,9.9,10.4,9.9l55.6-0.2c5.7,0,10.4-4.5,10.4-10l-0.1-16.9C164.9,314,160.2,309.5,154.5,309.5"/>
			<g>
				<path fill="#E3B14D" d="M160.3,321.5l0.1,12.8c0,4.2-4.1,7.6-9.1,7.6l-48.9,0.2c-5,0-9.1-3.4-9.2-7.5l0-12.8"/>
				<g>
					<path fill="none" stroke="#9A9A9A" stroke-width="0.7171" stroke-miterlimit="10" d="M130.2,329.4c0,0,8.6,2.1,6.5-8.2
						c-1.3-6.1-6.5-3-6.6-10.7l-0.1-32.7"/>
					<g>
						<path fill="#F3755D" d="M130,252.4c0,0-17.6,25.3,0,25.3C147.6,277.7,130,252.4,130,252.4z"/>
						<path fill="#F0E161" d="M130,261.3c0,0-11.4,16.4,0,16.4C141.4,277.7,130,261.3,130,261.3z"/>
					</g>
				</g>
			</g>
		</g>
		<g>
			<path fill="#FFFFFF" d="M150,123.4l-0.2-44.1c4.2-1,7.3-4.6,7.3-9c0-5.1-4.4-9.2-9.7-9.2l-39.8,0.1c-5.3,0-9.6,4.2-9.6,9.3
				c0,5,4.1,9,9.3,9.2l0.2,43.2c-21.3,8-36.5,27.8-36.4,51.1c0.1,30.2,25.7,54.5,57.2,54.4c31.5-0.1,56.9-24.6,56.8-54.8
				C185,151,170.5,131.6,150,123.4"/>
			<g>
				<g>
					<path fill="#F1592B" d="M79.2,174c0.1,25.9,22.1,46.8,49.1,46.7c27-0.1,48.8-21.1,48.7-47L79.2,174z"/>
				</g>
				<g>
					<circle opacity="0.9" fill="#FFFFFF" cx="125.8" cy="203.7" r="3.7"/>
					<circle opacity="0.9" fill="#FFFFFF" cx="140.5" cy="184.5" r="4.4"/>
					<circle opacity="0.9" fill="#FFFFFF" cx="132.1" cy="192.7" r="2.6"/>
					<circle opacity="0.9" fill="#FFFFFF" cx="136.1" cy="203.7" r="1.5"/>
					<circle opacity="0.9" fill="#FFFFFF" cx="132.1" cy="212.6" r="2.6"/>
					<circle opacity="0.9" fill="#FFFFFF" cx="123.8" cy="184.5" r="1.7"/>
				</g>
			</g>
		</g>
		<g>
			<polygon fill="#585857" points="289.6,365.4 22.5,366.3 22.4,347.8 289.5,346.9 			"/>
			<g>
				<g>
					<rect x="79.2" y="83.9" fill="#585857" width="148.4" height="11"/>
					<path fill="#595857" d="M161.2,89.4c0,6.1-4.9,11-11,11H106c-6.1,0-11-4.9-11-11l0,0c0-6.1,4.9-11,11-11h44.2
						C156.3,78.4,161.2,83.3,161.2,89.4L161.2,89.4z"/>
				</g>
				<g>
					<rect x="226.5" y="45.8" fill="#585857" width="14.1" height="311.1"/>
					<g>
						<circle fill="#585857" cx="233.3" cy="89.4" r="18.4"/>
						<circle fill="#71716F" cx="233.3" cy="89.4" r="11"/>
					</g>
				</g>
			</g>
		</g>
	</g>
</g>
</svg>
